solid 
facet normal -0.382327 -0.000279 0.924027
outer loop
vertex -0.00270000 0.02270000 0.18780000
vertex -0.00560000 0.02240000 0.18660000
vertex -0.00460000 -0.02310000 0.18700000
endloop
endfacet
facet normal 0.238287 -0.003406 0.971189
outer loop
vertex 0.00410000 0.02250000 0.18740000
vertex 0.00100000 -0.02330000 0.18800000
vertex 0.00510000 -0.02160000 0.18700000
endloop
endfacet
facet normal -0.176124 -0.009887 0.984318
outer loop
vertex -0.00460000 -0.02310000 0.18700000
vertex 0.00100000 -0.02330000 0.18800000
vertex -0.00270000 0.02270000 0.18780000
endloop
endfacet
facet normal -0.037310 0.001344 0.999303
outer loop
vertex -0.00270000 0.02270000 0.18780000
vertex 0.00100000 -0.02330000 0.18800000
vertex 0.00000000 0.02330000 0.18790000
endloop
endfacet
facet normal 0.121966 0.004747 0.992523
outer loop
vertex 0.00000000 0.02330000 0.18790000
vertex 0.00100000 -0.02330000 0.18800000
vertex 0.00410000 0.02250000 0.18740000
endloop
endfacet
facet normal 0.024458 -0.978326 0.205623
outer loop
vertex -0.00150000 -0.02760000 0.17180000
vertex 0.00250000 -0.02750000 0.17180000
vertex 0.00080000 -0.02460000 0.18580000
endloop
endfacet
facet normal -0.845345 -0.479846 0.234818
outer loop
vertex -0.00710000 -0.02110000 0.18430000
vertex -0.00960000 -0.02340000 0.17060000
vertex -0.00810000 -0.02570000 0.17130000
endloop
endfacet
facet normal -0.971330 -0.129963 0.199069
outer loop
vertex -0.00710000 -0.02110000 0.18430000
vertex -0.01030000 -0.01970000 0.16960000
vertex -0.00960000 -0.02340000 0.17060000
endloop
endfacet
facet normal -0.986125 0.004138 0.165956
outer loop
vertex -0.00920000 -0.01610000 0.17810000
vertex -0.01050000 0.01900000 0.16950000
vertex -0.01100000 -0.00390000 0.16710000
endloop
endfacet
facet normal -0.987346 -0.002712 0.158557
outer loop
vertex -0.00920000 -0.01610000 0.17810000
vertex -0.01100000 -0.00390000 0.16710000
vertex -0.01080000 -0.01240000 0.16820000
endloop
endfacet
facet normal -0.988647 -0.039935 0.144856
outer loop
vertex -0.00920000 -0.01610000 0.17810000
vertex -0.01080000 -0.01240000 0.16820000
vertex -0.01030000 -0.01970000 0.16960000
endloop
endfacet
facet normal -0.966940 -0.164538 0.194820
outer loop
vertex -0.00920000 -0.01610000 0.17810000
vertex -0.01030000 -0.01970000 0.16960000
vertex -0.00710000 -0.02110000 0.18430000
endloop
endfacet
facet normal -0.875313 0.420720 0.238374
outer loop
vertex -0.00960000 0.02320000 0.17050000
vertex -0.00560000 0.02240000 0.18660000
vertex -0.00840000 0.02530000 0.17120000
endloop
endfacet
facet normal -0.945586 -0.018708 0.324833
outer loop
vertex -0.01100000 0.00260000 0.16710000
vertex -0.01050000 0.01900000 0.16950000
vertex -0.01090000 0.00970000 0.16780000
endloop
endfacet
facet normal -0.174986 0.965477 0.192962
outer loop
vertex -0.00010000 0.02770000 0.17180000
vertex -0.00650000 0.02660000 0.17150000
vertex 0.00000000 0.02500000 0.18540000
endloop
endfacet
facet normal -0.217724 0.930849 0.293454
outer loop
vertex 0.00000000 0.02330000 0.18790000
vertex -0.00560000 0.02240000 0.18660000
vertex -0.00270000 0.02270000 0.18780000
endloop
endfacet
facet normal -0.958233 0.146914 0.245370
outer loop
vertex -0.00960000 0.02320000 0.17050000
vertex -0.01050000 0.01900000 0.16950000
vertex -0.00560000 0.02240000 0.18660000
endloop
endfacet
facet normal -0.254744 0.799645 0.543759
outer loop
vertex -0.00560000 0.02240000 0.18660000
vertex 0.00000000 0.02330000 0.18790000
vertex 0.00000000 0.02500000 0.18540000
endloop
endfacet
facet normal -0.573285 0.779931 0.251104
outer loop
vertex -0.00840000 0.02530000 0.17120000
vertex -0.00560000 0.02240000 0.18660000
vertex -0.00650000 0.02660000 0.17150000
endloop
endfacet
facet normal -0.357274 0.894125 0.269992
outer loop
vertex -0.00650000 0.02660000 0.17150000
vertex -0.00560000 0.02240000 0.18660000
vertex 0.00000000 0.02500000 0.18540000
endloop
endfacet
facet normal -1.000000 0.000000 0.000000
outer loop
vertex 0.00000000 0.02330000 0.18790000
vertex 0.00000000 0.02410000 0.18680000
vertex 0.00000000 0.02500000 0.18540000
endloop
endfacet
facet normal 1.000000 0.000000 0.000000
outer loop
vertex 0.00000000 0.02570000 0.18170000
vertex 0.00000000 0.02500000 0.18540000
vertex 0.00000000 0.02410000 0.18680000
endloop
endfacet
facet normal -0.737504 -0.010272 0.675265
outer loop
vertex -0.00460000 -0.02310000 0.18700000
vertex -0.00560000 0.02240000 0.18660000
vertex -0.00710000 -0.02110000 0.18430000
endloop
endfacet
facet normal -0.121973 -0.849602 0.513126
outer loop
vertex 0.00100000 -0.02330000 0.18800000
vertex -0.00460000 -0.02310000 0.18700000
vertex 0.00080000 -0.02460000 0.18580000
endloop
endfacet
facet normal -0.207997 -0.946419 0.247038
outer loop
vertex 0.00080000 -0.02460000 0.18580000
vertex -0.00460000 -0.02310000 0.18700000
vertex -0.00560000 -0.02690000 0.17160000
endloop
endfacet
facet normal -0.174702 -0.956494 0.233664
outer loop
vertex 0.00080000 -0.02460000 0.18580000
vertex -0.00560000 -0.02690000 0.17160000
vertex -0.00150000 -0.02760000 0.17180000
endloop
endfacet
facet normal -0.761369 -0.590546 0.267529
outer loop
vertex -0.00460000 -0.02310000 0.18700000
vertex -0.00710000 -0.02110000 0.18430000
vertex -0.00810000 -0.02570000 0.17130000
endloop
endfacet
facet normal -0.943302 0.014995 0.331598
outer loop
vertex -0.00920000 -0.01610000 0.17810000
vertex -0.00710000 -0.02110000 0.18430000
vertex -0.00560000 0.02240000 0.18660000
endloop
endfacet
facet normal -0.962453 0.030443 0.269737
outer loop
vertex -0.00560000 0.02240000 0.18660000
vertex -0.01050000 0.01900000 0.16950000
vertex -0.00920000 -0.01610000 0.17810000
endloop
endfacet
facet normal -0.443321 -0.863142 0.241770
outer loop
vertex -0.00460000 -0.02310000 0.18700000
vertex -0.00810000 -0.02570000 0.17130000
vertex -0.00560000 -0.02690000 0.17160000
endloop
endfacet
facet normal -0.978980 0.000000 0.203954
outer loop
vertex -0.01050000 0.01900000 0.16950000
vertex -0.01100000 0.00260000 0.16710000
vertex -0.01100000 -0.00390000 0.16710000
endloop
endfacet
facet normal 0.095213 0.975931 0.196196
outer loop
vertex 0.00400000 0.02730000 0.17180000
vertex -0.00010000 0.02770000 0.17180000
vertex 0.00000000 0.02570000 0.18170000
endloop
endfacet
facet normal 0.318586 0.923438 0.213930
outer loop
vertex 0.00400000 0.02730000 0.17180000
vertex 0.00450000 0.02400000 0.18530000
vertex 0.00710000 0.02630000 0.17150000
endloop
endfacet
facet normal 0.960046 0.208102 0.187097
outer loop
vertex 0.00950000 0.02350000 0.17060000
vertex 0.00800000 0.02080000 0.18130000
vertex 0.01020000 0.02090000 0.16990000
endloop
endfacet
facet normal 0.657255 0.713505 0.242748
outer loop
vertex 0.00710000 0.02630000 0.17150000
vertex 0.00450000 0.02400000 0.18530000
vertex 0.00620000 0.02240000 0.18540000
endloop
endfacet
facet normal 0.179729 0.957096 0.227300
outer loop
vertex 0.00450000 0.02400000 0.18530000
vertex 0.00400000 0.02730000 0.17180000
vertex 0.00000000 0.02570000 0.18170000
endloop
endfacet
facet normal 0.872353 0.433136 0.226704
outer loop
vertex 0.00950000 0.02350000 0.17060000
vertex 0.00850000 0.02520000 0.17120000
vertex 0.00620000 0.02240000 0.18540000
endloop
endfacet
facet normal 0.630846 0.735476 0.247203
outer loop
vertex 0.00620000 0.02240000 0.18540000
vertex 0.00850000 0.02520000 0.17120000
vertex 0.00710000 0.02630000 0.17150000
endloop
endfacet
facet normal 0.980396 0.053386 0.189668
outer loop
vertex 0.01020000 0.02090000 0.16990000
vertex 0.00800000 0.02080000 0.18130000
vertex 0.01080000 0.01450000 0.16860000
endloop
endfacet
facet normal 0.882985 0.410640 0.227402
outer loop
vertex 0.00950000 0.02350000 0.17060000
vertex 0.00620000 0.02240000 0.18540000
vertex 0.00800000 0.02080000 0.18130000
endloop
endfacet
facet normal 0.981595 -0.000158 0.190977
outer loop
vertex 0.00870000 -0.02020000 0.17920000
vertex 0.01090000 -0.01090000 0.16790000
vertex 0.01100000 0.00600000 0.16740000
endloop
endfacet
facet normal 0.259665 -0.938878 0.226013
outer loop
vertex 0.00710000 -0.02630000 0.17150000
vertex 0.00080000 -0.02460000 0.18580000
vertex 0.00250000 -0.02750000 0.17180000
endloop
endfacet
facet normal 0.997413 -0.003778 0.071784
outer loop
vertex 0.01100000 -0.00160000 0.16700000
vertex 0.01100000 0.00600000 0.16740000
vertex 0.01090000 -0.01090000 0.16790000
endloop
endfacet
facet normal 0.985145 -0.026978 0.169595
outer loop
vertex 0.01090000 -0.01090000 0.16790000
vertex 0.00870000 -0.02020000 0.17920000
vertex 0.01040000 -0.01910000 0.16950000
endloop
endfacet
facet normal 0.795761 0.026907 0.605013
outer loop
vertex 0.00800000 0.02080000 0.18130000
vertex 0.00510000 -0.02160000 0.18700000
vertex 0.00670000 -0.02170000 0.18490000
endloop
endfacet
facet normal 0.978821 0.006231 0.204622
outer loop
vertex 0.00800000 0.02080000 0.18130000
vertex 0.00870000 -0.02020000 0.17920000
vertex 0.01100000 0.00600000 0.16740000
endloop
endfacet
facet normal 0.433277 -0.792621 0.428978
outer loop
vertex 0.00510000 -0.02160000 0.18700000
vertex 0.00100000 -0.02330000 0.18800000
vertex 0.00080000 -0.02460000 0.18580000
endloop
endfacet
facet normal 0.902356 -0.372092 0.217488
outer loop
vertex 0.00670000 -0.02170000 0.18490000
vertex 0.00860000 -0.02510000 0.17120000
vertex 0.00970000 -0.02290000 0.17040000
endloop
endfacet
facet normal 0.565996 -0.681642 0.463694
outer loop
vertex 0.00510000 -0.02160000 0.18700000
vertex 0.00500000 -0.02420000 0.18330000
vertex 0.00670000 -0.02170000 0.18490000
endloop
endfacet
facet normal 0.712681 -0.651333 0.260484
outer loop
vertex 0.00670000 -0.02170000 0.18490000
vertex 0.00500000 -0.02420000 0.18330000
vertex 0.00860000 -0.02510000 0.17120000
endloop
endfacet
facet normal 0.635122 -0.733031 0.243485
outer loop
vertex 0.00710000 -0.02630000 0.17150000
vertex 0.00860000 -0.02510000 0.17120000
vertex 0.00500000 -0.02420000 0.18330000
endloop
endfacet
facet normal 0.384214 -0.760243 0.523841
outer loop
vertex 0.00510000 -0.02160000 0.18700000
vertex 0.00080000 -0.02460000 0.18580000
vertex 0.00500000 -0.02420000 0.18330000
endloop
endfacet
facet normal 0.214715 -0.954263 0.208038
outer loop
vertex 0.00500000 -0.02420000 0.18330000
vertex 0.00080000 -0.02460000 0.18580000
vertex 0.00710000 -0.02630000 0.17150000
endloop
endfacet
facet normal 0.943668 -0.000837 0.330892
outer loop
vertex 0.00800000 0.02080000 0.18130000
vertex 0.00670000 -0.02170000 0.18490000
vertex 0.00870000 -0.02020000 0.17920000
endloop
endfacet
facet normal 0.224211 0.818195 0.529420
outer loop
vertex 0.00410000 0.02250000 0.18740000
vertex 0.00000000 0.02440000 0.18620000
vertex 0.00000000 0.02330000 0.18790000
endloop
endfacet
facet normal 0.554502 0.623599 0.551047
outer loop
vertex 0.00410000 0.02250000 0.18740000
vertex 0.00620000 0.02240000 0.18540000
vertex 0.00450000 0.02400000 0.18530000
endloop
endfacet
facet normal 0.901123 -0.375074 0.217480
outer loop
vertex 0.00870000 -0.02020000 0.17920000
vertex 0.00670000 -0.02170000 0.18490000
vertex 0.00970000 -0.02290000 0.17040000
endloop
endfacet
facet normal -1.000000 0.000000 0.000000
outer loop
vertex 0.00000000 0.02570000 0.18170000
vertex 0.00000000 0.02410000 0.18680000
vertex 0.00000000 0.02440000 0.18620000
endloop
endfacet
facet normal 0.188365 0.781844 0.594339
outer loop
vertex 0.00000000 0.02440000 0.18620000
vertex 0.00410000 0.02250000 0.18740000
vertex 0.00450000 0.02400000 0.18530000
endloop
endfacet
facet normal 0.139526 0.951317 0.274825
outer loop
vertex 0.00000000 0.02570000 0.18170000
vertex 0.00000000 0.02440000 0.18620000
vertex 0.00450000 0.02400000 0.18530000
endloop
endfacet
facet normal 0.975678 -0.007969 0.219063
outer loop
vertex 0.01100000 0.00600000 0.16740000
vertex 0.01080000 0.01450000 0.16860000
vertex 0.00800000 0.02080000 0.18130000
endloop
endfacet
facet normal 0.914440 -0.008147 0.404640
outer loop
vertex 0.00510000 -0.02160000 0.18700000
vertex 0.00800000 0.02080000 0.18130000
vertex 0.00620000 0.02240000 0.18540000
endloop
endfacet
facet normal 0.977453 -0.143334 0.155052
outer loop
vertex 0.01040000 -0.01910000 0.16950000
vertex 0.00870000 -0.02020000 0.17920000
vertex 0.00970000 -0.02290000 0.17040000
endloop
endfacet
facet normal 0.689853 0.009077 0.723892
outer loop
vertex 0.00620000 0.02240000 0.18540000
vertex 0.00410000 0.02250000 0.18740000
vertex 0.00510000 -0.02160000 0.18700000
endloop
endfacet
facet normal 1.000000 -0.000000 -0.000000
outer loop
vertex 0.00000000 0.02330000 0.18790000
vertex 0.00000000 0.02440000 0.18620000
vertex 0.00000000 0.02410000 0.18680000
endloop
endfacet
facet normal 0.780412 0.614367 0.116232
outer loop
vertex 0.00000000 0.02500000 0.18540000
vertex 0.00000000 0.02570000 0.18170000
vertex -0.00010000 0.02770000 0.17180000
endloop
endfacet
endsolid 
